<svg width="108" height="108" viewBox="0 0 108 108" xmlns="http://www.w3.org/2000/svg">
  <defs>
    <linearGradient id="tile1" x1="0%" y1="0%" x2="100%" y2="100%">
      <stop offset="0%" style="stop-color:#FFE66D;stop-opacity:1" />
      <stop offset="100%" style="stop-color:#FFA500;stop-opacity:1" />
    </linearGradient>
    <linearGradient id="tile2" x1="0%" y1="0%" x2="100%" y2="100%">
      <stop offset="0%" style="stop-color:#FF8C42;stop-opacity:1" />
      <stop offset="100%" style="stop-color:#FF6B35;stop-opacity:1" />
    </linearGradient>
    <linearGradient id="tile3" x1="0%" y1="0%" x2="100%" y2="100%">
      <stop offset="0%" style="stop-color:#FF6B6B;stop-opacity:1" />
      <stop offset="100%" style="stop-color:#FF5252;stop-opacity:1" />
    </linearGradient>
    <linearGradient id="tile4" x1="0%" y1="0%" x2="100%" y2="100%">
      <stop offset="0%" style="stop-color:#9C27B0;stop-opacity:1" />
      <stop offset="100%" style="stop-color:#7B1FA2;stop-opacity:1" />
    </linearGradient>
  </defs>
  
  <!-- Game grid background -->
  <rect x="8" y="8" width="92" height="92" fill="#BBADA0" rx="8"/>
  
  <!-- Grid lines -->
  <rect x="8" y="8" width="92" height="92" fill="none" stroke="#CDC1B4" stroke-width="1" rx="8"/>
  
  <!-- Tiles -->
  <rect x="12" y="12" width="20" height="20" fill="url(#tile1)" rx="3"/>
  <text x="22" y="26" font-family="Arial, sans-serif" font-size="12" font-weight="bold" fill="#776E65" text-anchor="middle">2</text>
  
  <rect x="34" y="12" width="20" height="20" fill="url(#tile2)" rx="3"/>
  <text x="44" y="26" font-family="Arial, sans-serif" font-size="12" font-weight="bold" fill="#776E65" text-anchor="middle">4</text>
  
  <rect x="56" y="12" width="20" height="20" fill="url(#tile3)" rx="3"/>
  <text x="66" y="26" font-family="Arial, sans-serif" font-size="12" font-weight="bold" fill="#F9F6F2" text-anchor="middle">8</text>
  
  <rect x="78" y="12" width="20" height="20" fill="url(#tile4)" rx="3"/>
  <text x="88" y="26" font-family="Arial, sans-serif" font-size="10" font-weight="bold" fill="#F9F6F2" text-anchor="middle">16</text>
  
  <rect x="12" y="34" width="20" height="20" fill="#3F51B5" rx="3"/>
  <text x="22" y="48" font-family="Arial, sans-serif" font-size="10" font-weight="bold" fill="#F9F6F2" text-anchor="middle">32</text>
  
  <rect x="34" y="34" width="20" height="20" fill="#2196F3" rx="3"/>
  <text x="44" y="48" font-family="Arial, sans-serif" font-size="10" font-weight="bold" fill="#F9F6F2" text-anchor="middle">64</text>
  
  <rect x="56" y="34" width="20" height="20" fill="#4CAF50" rx="3"/>
  <text x="66" y="48" font-family="Arial, sans-serif" font-size="9" font-weight="bold" fill="#F9F6F2" text-anchor="middle">128</text>
  
  <rect x="78" y="34" width="20" height="20" fill="#8BC34A" rx="3"/>
  <text x="88" y="48" font-family="Arial, sans-serif" font-size="9" font-weight="bold" fill="#F9F6F2" text-anchor="middle">256</text>
  
  <rect x="12" y="56" width="20" height="20" fill="#FF9800" rx="3"/>
  <text x="22" y="70" font-family="Arial, sans-serif" font-size="9" font-weight="bold" fill="#F9F6F2" text-anchor="middle">512</text>
  
  <!-- 1024 tile (highlighted) -->
  <rect x="34" y="56" width="20" height="20" fill="#FF5722" rx="3"/>
  <text x="44" y="70" font-family="Arial, sans-serif" font-size="8" font-weight="bold" fill="#F9F6F2" text-anchor="middle">1024</text>
  
  <!-- Glow effect -->
  <rect x="34" y="56" width="20" height="20" fill="none" stroke="#FF5722" stroke-width="1" rx="3" opacity="0.8"/>
</svg> 